<svg width="25" height="25" viewBox="0 0 25 25" fill="none" xmlns="http://www.w3.org/2000/svg">
<path d="M2 3.125V21.875C2 22.7038 2.35119 23.4987 2.97631 24.0847C3.60143 24.6708 4.44928 25 5.33333 25H21.1667C21.3877 25 21.5996 24.9177 21.7559 24.7712C21.9122 24.6247 22 24.426 22 24.2188C22 24.0115 21.9122 23.8128 21.7559 23.6663C21.5996 23.5198 21.3877 23.4375 21.1667 23.4375H5.33333C4.89131 23.4375 4.46738 23.2729 4.15482 22.9799C3.84226 22.6868 3.66667 22.2894 3.66667 21.875H20.3333C20.7754 21.875 21.1993 21.7104 21.5118 21.4174C21.8244 21.1243 22 20.7269 22 20.3125V3.125C22 2.2962 21.6488 1.50134 21.0237 0.915291C20.3986 0.32924 19.5507 0 18.6667 0H5.33333C4.44928 0 3.60143 0.32924 2.97631 0.915291C2.35119 1.50134 2 2.2962 2 3.125ZM18.6667 1.5625C19.1087 1.5625 19.5326 1.72712 19.8452 2.02015C20.1577 2.31317 20.3333 2.7106 20.3333 3.125V20.3125H3.66667V3.125C3.66667 2.7106 3.84226 2.31317 4.15482 2.02015C4.46738 1.72712 4.89131 1.5625 5.33333 1.5625H18.6667ZM12 6.25C10.6739 6.25 9.40215 6.74386 8.46447 7.62294C7.52678 8.50201 7 9.6943 7 10.9375C7 12.1807 7.52678 13.373 8.46447 14.2521C9.40215 15.1311 10.6739 15.625 12 15.625C13.3261 15.625 14.5979 15.1311 15.5355 14.2521C16.4732 13.373 17 12.1807 17 10.9375C17 9.6943 16.4732 8.50201 15.5355 7.62294C14.5979 6.74386 13.3261 6.25 12 6.25ZM5.33333 10.9375C5.33333 9.2799 6.03571 7.69018 7.28595 6.51808C8.5362 5.34598 10.2319 4.6875 12 4.6875C13.7681 4.6875 15.4638 5.34598 16.714 6.51808C17.9643 7.69018 18.6667 9.2799 18.6667 10.9375C18.6667 12.5951 17.9643 14.1848 16.714 15.3569C15.4638 16.529 13.7681 17.1875 12 17.1875C10.2319 17.1875 8.5362 16.529 7.28595 15.3569C6.03571 14.1848 5.33333 12.5951 5.33333 10.9375ZM12 8.59375C12 8.38655 11.9122 8.18784 11.7559 8.04132C11.5996 7.89481 11.3877 7.8125 11.1667 7.8125C10.9457 7.8125 10.7337 7.89481 10.5774 8.04132C10.4211 8.18784 10.3333 8.38655 10.3333 8.59375V11.7188C10.3333 11.926 10.4211 12.1247 10.5774 12.2712C10.7337 12.4177 10.9457 12.5 11.1667 12.5H13.6667C13.8877 12.5 14.0996 12.4177 14.2559 12.2712C14.4122 12.1247 14.5 11.926 14.5 11.7188C14.5 11.5115 14.4122 11.3128 14.2559 11.1663C14.0996 11.0198 13.8877 10.9375 13.6667 10.9375H12V8.59375Z" fill="white"/>
</svg>
